<svg xmlns="http://www.w3.org/2000/svg" viewBox="0 0 400 400">
  <defs>
    <path id="solar-ray" d="M200 8 C205 40 205 70 200 110 C195 70 195 40 200 8Z" fill="#768452"/>
    <path id="orbit-text" d="M200 45 A155 155 0 1 1 199.9 45Z" fill="none"/>
  </defs>
  <g opacity="0.9">
    <use href="#solar-ray"/>
    <use href="#solar-ray" transform="rotate(12 200 200)"/>
    <use href="#solar-ray" transform="rotate(24 200 200)"/>
    <use href="#solar-ray" transform="rotate(36 200 200)"/>
    <use href="#solar-ray" transform="rotate(48 200 200)"/>
    <use href="#solar-ray" transform="rotate(60 200 200)"/>
    <use href="#solar-ray" transform="rotate(72 200 200)"/>
    <use href="#solar-ray" transform="rotate(84 200 200)"/>
    <use href="#solar-ray" transform="rotate(96 200 200)"/>
    <use href="#solar-ray" transform="rotate(108 200 200)"/>
    <use href="#solar-ray" transform="rotate(120 200 200)"/>
    <use href="#solar-ray" transform="rotate(132 200 200)"/>
    <use href="#solar-ray" transform="rotate(144 200 200)"/>
    <use href="#solar-ray" transform="rotate(156 200 200)"/>
    <use href="#solar-ray" transform="rotate(168 200 200)"/>
    <use href="#solar-ray" transform="rotate(180 200 200)"/>
    <use href="#solar-ray" transform="rotate(192 200 200)"/>
    <use href="#solar-ray" transform="rotate(204 200 200)"/>
    <use href="#solar-ray" transform="rotate(216 200 200)"/>
    <use href="#solar-ray" transform="rotate(228 200 200)"/>
    <use href="#solar-ray" transform="rotate(240 200 200)"/>
    <use href="#solar-ray" transform="rotate(252 200 200)"/>
    <use href="#solar-ray" transform="rotate(264 200 200)"/>
    <use href="#solar-ray" transform="rotate(276 200 200)"/>
    <use href="#solar-ray" transform="rotate(288 200 200)"/>
    <use href="#solar-ray" transform="rotate(300 200 200)"/>
    <use href="#solar-ray" transform="rotate(312 200 200)"/>
    <use href="#solar-ray" transform="rotate(324 200 200)"/>
    <use href="#solar-ray" transform="rotate(336 200 200)"/>
    <use href="#solar-ray" transform="rotate(348 200 200)"/>
  </g>
  <circle cx="200" cy="200" r="140" fill="#d2a150" stroke="#a78847" stroke-width="4"/>
  <text font-family="IBM Plex Mono, 'Space Mono', monospace" font-size="12" fill="#546241">
    <textPath href="#orbit-text" startOffset="20">
      40.946°N 73.904°W 180S 35° +13.2E UTC-05 • 36.479°N 127.289°E 186S 33° -7.0W UTC+09
    </textPath>
  </text>
</svg>

